<?xml version="1.0" standalone="no"?>
<!DOCTYPE svg PUBLIC "-//W3C//DTD SVG 20010904//EN"
 "http://www.w3.org/TR/2001/REC-SVG-20010904/DTD/svg10.dtd">
<svg version="1.0" xmlns="http://www.w3.org/2000/svg"
 width="300.000000pt" height="280.000000pt" viewBox="0 0 300.000000 280.000000"
 preserveAspectRatio="xMidYMid meet">
<metadata>
Created by potrace 1.16, written by Peter Selinger 2001-2019
</metadata>
<g transform="translate(0.000000,280.000000) scale(0.100000,-0.100000)"
fill="#000000" stroke="none">
<path d="M0 1400 l0 -1400 1500 0 1500 0 0 1400 0 1400 -1500 0 -1500 0 0
-1400z m1677 -547 c-1 -307 -2 -59 -2 552 0 611 1 862 2 558 2 -303 2 -803 0
-1110z m673 1634 c35 -16 35 -16 5 -11 -16 2 -5 -5 25 -16 30 -11 61 -18 67
-15 7 2 12 -1 10 -7 -1 -6 4 -13 12 -16 9 -3 11 0 6 9 -5 8 -4 11 1 6 5 -5 9
-14 9 -19 0 -6 6 -13 14 -16 9 -3 11 0 6 9 -5 8 -4 11 1 6 5 -5 9 -14 9 -19 0
-6 6 -13 14 -16 9 -3 11 0 7 9 -4 8 16 -11 45 -41 78 -82 126 -189 140 -314
16 -141 7 -542 -15 -620 -23 -83 -62 -151 -124 -216 -30 -30 -50 -49 -46 -41
4 9 2 12 -7 9 -8 -3 -14 -10 -14 -16 0 -5 -4 -14 -9 -19 -5 -5 -6 -3 -2 5 10
16 0 15 -29 -4 -14 -9 -22 -20 -19 -25 3 -5 2 -9 -3 -10 -4 0 -20 -2 -35 -3
-15 -1 -33 -9 -40 -18 -20 -26 -91 -37 -235 -38 l-133 0 -2 -372 -3 -373 -5
375 -5 375 -3 -358 c-2 -350 -2 -357 -21 -347 -26 13 -34 13 -25 -2 4 -8 3
-10 -2 -5 -5 5 -9 14 -9 20 0 7 -9 13 -20 15 -17 3 -18 1 -5 -8 13 -10 13 -11
0 -7 -13 3 -15 58 -18 400 l-3 397 208 0 c114 0 213 4 220 8 6 4 -89 7 -210 6
l-222 0 220 7 c121 4 234 9 250 11 39 6 77 26 70 38 -3 5 0 12 6 16 8 4 9 3 5
-4 -18 -29 15 -7 57 37 41 44 93 128 85 136 -2 2 -16 -20 -31 -49 -15 -29 -44
-68 -64 -87 l-37 -34 38 44 c52 59 86 137 98 224 6 40 8 181 6 322 -5 290 -13
325 -97 417 -26 29 -50 60 -53 69 -6 16 -87 59 -110 59 -7 -1 2 -7 20 -15 17
-8 32 -16 32 -19 0 -3 -17 3 -37 12 -31 14 -80 17 -275 20 l-238 4 -2 -1004
-3 -1003 -5 1005 -5 1005 -4 -1000 c-2 -550 -3 -1003 -3 -1006 1 -3 -11 -11
-26 -18 -25 -11 -26 -10 -8 4 25 19 18 19 -28 0 -20 -8 -35 -20 -33 -26 1 -6
-5 -14 -13 -16 -13 -4 -13 -3 0 6 10 7 11 11 3 11 -10 0 -13 223 -13 1080 l0
1080 273 2 272 3 -270 6 -270 5 310 -1 c265 -1 315 -4 345 -18z m-1300 -1707
c-6 -21 -29 -57 -51 -81 l-41 -44 36 44 c20 25 41 61 46 80 6 22 11 362 12
881 l3 845 2 -844 c2 -545 0 -857 -7 -881z m325 -33 c-22 -107 -74 -208 -146
-282 -34 -35 -67 -61 -74 -59 -7 3 -16 0 -21 -7 -5 -8 -3 -10 6 -4 9 5 11 4 6
-4 -4 -6 -11 -9 -16 -6 -11 7 -82 -24 -76 -33 2 -4 -8 -8 -22 -9 -15 0 -47 -6
-72 -12 -58 -13 -172 -13 -230 0 -25 6 -57 12 -72 12 -14 1 -24 5 -22 9 6 9
-65 40 -76 33 -5 -3 -12 0 -16 6 -5 8 -3 9 6 4 9 -6 11 -4 6 4 -5 7 -14 10
-21 7 -20 -7 -129 113 -164 182 -56 111 -61 148 -60 447 0 148 3 263 6 255 7
-19 23 -30 43 -30 13 0 13 1 0 11 -13 9 -13 10 0 6 8 -2 15 -10 15 -18 0 -7 9
-15 20 -17 17 -3 18 -1 5 8 -13 10 -13 11 0 7 8 -2 15 -9 15 -15 0 -5 3 -14 8
-18 4 -4 7 -104 7 -223 0 -221 7 -278 44 -348 27 -53 26 -38 -3 30 -25 61 -26
66 -27 312 l-1 250 6 -250 c6 -242 7 -252 33 -314 15 -36 25 -68 22 -72 -7
-12 97 -120 114 -117 9 2 17 -4 17 -12 0 -9 10 -15 28 -16 15 -1 31 -5 35 -9
4 -5 -1 -5 -11 -2 -9 4 -17 4 -17 2 0 -9 73 -36 84 -31 6 2 3 5 -6 5 -9 1 -19
5 -23 10 -3 6 7 6 27 0 55 -15 154 -10 215 11 63 22 63 14 0 -12 -23 -9 -37
-17 -30 -17 16 -1 123 48 123 55 0 4 -7 4 -15 0 -23 -8 -18 0 11 19 15 9 23
12 20 6 -4 -6 -3 -11 2 -11 14 0 98 92 116 128 24 47 12 39 -17 -10 -14 -24
-38 -54 -53 -68 -23 -20 -21 -17 8 20 20 25 46 65 58 90 48 94 49 113 50 972
0 444 3 809 8 811 4 3 6 -92 5 -211 -7 -548 -7 -1471 -1 -1450 3 13 6 389 7
836 l1 813 35 15 c20 8 33 19 30 24 -3 5 0 12 6 16 8 5 9 3 4 -6 -6 -10 -3
-12 13 -8 l22 6 3 -836 2 -837 5 855 5 855 2 -843 c3 -717 1 -853 -12 -915z
m-258 1708 c-1 -5 8 -10 20 -9 12 0 20 -3 17 -7 -2 -4 3 -12 11 -17 14 -7 16
-94 13 -844 -2 -460 -1 -834 2 -831 3 2 7 383 10 846 l5 842 3 -806 c1 -513
-2 -826 -8 -860 -14 -75 -54 -149 -108 -201 -25 -23 -41 -37 -37 -29 5 9 3 12
-6 9 -8 -3 -14 -10 -14 -15 0 -6 -4 -15 -9 -20 -5 -5 -6 -3 -2 5 9 14 -3 16
-24 2 -12 -8 -12 -10 -1 -10 19 0 9 -10 -15 -14 -11 -3 -32 -9 -47 -15 -32
-13 -132 -14 -162 -2 -11 5 13 6 55 4 41 -3 85 -1 97 4 14 5 -21 8 -93 8 -63
-1 -120 3 -127 7 -9 6 -8 8 3 8 13 0 13 1 0 10 -21 14 -33 12 -24 -2 4 -8 3
-10 -2 -5 -5 5 -9 14 -9 20 0 5 -6 12 -14 15 -8 3 -11 0 -7 -7 12 -19 0 -12
-20 11 -15 19 -16 20 -1 9 28 -22 19 -7 -15 25 -18 16 -26 21 -19 11 19 -24 8
-21 -15 5 -10 12 -13 18 -6 14 6 -4 12 -6 12 -4 -1 12 -60 120 -60 110 0 -7 9
-31 20 -52 11 -22 18 -40 15 -40 -4 0 -18 26 -33 58 -26 56 -27 62 -30 295 -2
132 0 243 4 247 5 5 8 -82 6 -195 -1 -112 1 -225 5 -252 5 -29 7 45 5 184 -3
128 -1 240 3 250 5 10 8 21 7 25 -1 4 5 5 12 2 8 -3 28 2 45 10 16 9 32 16 35
16 3 0 6 -109 8 -242 3 -270 5 -276 76 -350 35 -37 61 -51 46 -25 -4 7 -3 9 2
4 5 -5 9 -14 9 -20 0 -7 9 -13 20 -15 12 -2 16 0 8 5 -6 4 22 8 62 8 40 0 68
-4 62 -8 -8 -5 -4 -7 8 -5 11 2 20 8 20 15 0 6 4 15 9 20 5 5 6 3 2 -4 -4 -7
-3 -13 2 -13 19 0 102 102 112 138 6 24 10 333 10 862 l0 825 24 0 c13 0 24
-4 23 -10z m1198 -143 c18 -11 17 -12 -10 -7 -29 5 -29 5 -5 -5 14 -6 33 -9
42 -6 11 2 18 -1 18 -10 0 -8 2 -14 4 -14 2 0 12 -3 22 -7 13 -5 15 -3 9 8 -5
8 -5 11 1 6 5 -5 9 -14 9 -19 0 -6 6 -13 14 -16 9 -3 11 0 6 9 -5 8 4 3 19
-11 40 -36 77 -104 92 -169 17 -71 19 -525 3 -603 -14 -67 -46 -122 -100 -173
-23 -22 -38 -34 -34 -26 5 9 3 12 -6 9 -8 -3 -13 -10 -12 -15 1 -5 -8 -9 -20
-9 -12 1 -21 -4 -20 -11 1 -6 -4 -14 -13 -17 -8 -3 -13 -2 -10 2 2 4 -94 5
-215 4 l-219 -4 0 541 0 541 173 2 172 2 -170 6 -170 7 200 -1 c141 -1 206 -5
220 -14z"/>
<path d="M2257 2179 c18 -5 35 -14 39 -20 4 -8 0 -8 -14 0 -12 6 -74 11 -146
11 l-126 0 0 -401 0 -400 133 5 c72 2 142 5 154 5 25 1 103 85 103 110 -1 9
-9 0 -19 -19 -11 -19 -30 -44 -42 -55 l-24 -20 22 25 c49 56 53 82 53 355 0
276 -3 298 -53 344 -15 13 -24 28 -21 32 6 10 -49 39 -73 38 -10 0 -4 -5 14
-10z"/>
</g>
</svg>
